<?xml version="1.0" encoding="UTF-8" standalone="no"?>
<svg width="32px" height="9px" viewBox="0 0 32 9" version="1.1" xmlns="http://www.w3.org/2000/svg" xmlns:xlink="http://www.w3.org/1999/xlink" xmlns:sketch="http://www.bohemiancoding.com/sketch/ns">
    <!-- Generator: Sketch Beta 3.1 (8603) - http://www.bohemiancoding.com/sketch -->
    <title>upvoted</title>
    <desc>Created with Sketch Beta.</desc>
    <defs/>
    <g id="Page-1" stroke="none" stroke-width="1" fill="none" fill-rule="evenodd" sketch:type="MSPage">
        <path d="M31.679619,7.09425 L31.679619,7.09425 L24.8228571,0.343875 L24.8224762,0.34425 C24.6144762,0.132 24.3230476,0 24,0 L23.9973333,0 L23.9946667,0 C23.671619,0 23.3801905,0.132 23.1721905,0.34425 L23.1718095,0.343875 L16.3146667,7.093875 L16.3177143,7.096875 C16.1211429,7.299 16,7.573125 16,7.875 C16,8.496375 16.511619,9 17.1428571,9 C17.4895238,9 17.8,8.84775 18.0095238,8.60775 L23.9973333,2.7135 L30.063619,8.685 L30.064,8.684625 C30.2697143,8.88 30.5489524,9 30.8571429,9 C31.488381,9 32,8.496375 32,7.875 C32,7.571625 31.8780952,7.29675 31.679619,7.09425 L31.679619,7.09425 Z" id="upvoted" fill="#1DD0E1" sketch:type="MSShapeGroup"/>
        <path d="M15.679619,7.09425 L15.679619,7.09425 L8.82285714,0.343875 L8.82247619,0.34425 C8.61447619,0.132 8.32304762,0 8,0 L7.99733333,0 L7.99466667,0 C7.67161905,0 7.38019048,0.132 7.17219048,0.34425 L7.17180952,0.343875 L0.314666667,7.093875 L0.317714286,7.096875 C0.121142857,7.299 0,7.573125 0,7.875 C0,8.496375 0.511619048,9 1.14285714,9 C1.48952381,9 1.8,8.84775 2.00952381,8.60775 L7.99733333,2.7135 L14.063619,8.685 L14.064,8.684625 C14.2697143,8.88 14.5489524,9 14.8571429,9 C15.488381,9 16,8.496375 16,7.875 C16,7.571625 15.8780952,7.29675 15.679619,7.09425 L15.679619,7.09425 Z" id="upvote" fill="#ADB3B9" sketch:type="MSShapeGroup"/>
    </g>
</svg>